<mxfile host="app.diagrams.net" modified="2023-06-07T13:38:00.045Z" agent="Mozilla/5.0 (Macintosh; Intel Mac OS X 10_15_7) AppleWebKit/605.1.15 (KHTML, like Gecko) Version/16.1 Safari/605.1.15" version="21.3.7" etag="ZmpTLGeKgNLxb6bZPE6B" type="github">
  <diagram name="Page-1" id="6ZYcv51MX9OuspqFBSPm">
    <mxGraphModel>
      <root>
        <mxCell id="0" />
        <mxCell id="1" parent="0" />
      </root>
    </mxGraphModel>
  </diagram>
</mxfile>
